<mxfile host="app.diagrams.net" agent="Mozilla/5.0 (Windows NT 10.0; Win64; x64) AppleWebKit/537.36 (KHTML, like Gecko) Chrome/136.0.0.0 Safari/537.36 Edg/136.0.0.0" version="26.3.0">
  <diagram name="Page-1" id="7lxTDtUE0XyDrknA5T9E">
    <mxGraphModel dx="1003" dy="458" grid="1" gridSize="10" guides="1" tooltips="1" connect="1" arrows="1" fold="1" page="1" pageScale="1" pageWidth="850" pageHeight="1100" math="0" shadow="0">
      <root>
        <mxCell id="0" />
        <mxCell id="1" parent="0" />
        <mxCell id="s2LPiHmwgQY_nW-soDtN-1" value="Copilot Orchestrator" style="rounded=0;whiteSpace=wrap;html=1;" vertex="1" parent="1">
          <mxGeometry x="170" y="290" width="120" height="60" as="geometry" />
        </mxCell>
        <mxCell id="s2LPiHmwgQY_nW-soDtN-3" value="" style="edgeStyle=orthogonalEdgeStyle;rounded=0;orthogonalLoop=1;jettySize=auto;html=1;" edge="1" parent="1" source="s2LPiHmwgQY_nW-soDtN-2" target="s2LPiHmwgQY_nW-soDtN-1">
          <mxGeometry relative="1" as="geometry" />
        </mxCell>
        <mxCell id="s2LPiHmwgQY_nW-soDtN-2" value="Actor" style="shape=umlActor;verticalLabelPosition=bottom;verticalAlign=top;html=1;outlineConnect=0;" vertex="1" parent="1">
          <mxGeometry x="20" y="290" width="30" height="60" as="geometry" />
        </mxCell>
        <mxCell id="s2LPiHmwgQY_nW-soDtN-4" value="&lt;b&gt;PM Copilot API&lt;br&gt;&lt;/b&gt;&lt;font style=&quot;font-size: 10px;&quot;&gt;(System Name:&lt;br&gt;Portfolio-Management)&lt;/font&gt;" style="whiteSpace=wrap;html=1;rounded=0;" vertex="1" parent="1">
          <mxGeometry x="410" y="220" width="120" height="80" as="geometry" />
        </mxCell>
        <mxCell id="s2LPiHmwgQY_nW-soDtN-6" value="&lt;b&gt;Insights Hub&lt;br&gt;Copilot API&lt;br&gt;&lt;/b&gt;&lt;font style=&quot;font-size: 10px;&quot;&gt;(System Name:&lt;br&gt;InsightsHub)&lt;/font&gt;" style="whiteSpace=wrap;html=1;rounded=0;" vertex="1" parent="1">
          <mxGeometry x="410" y="330" width="120" height="80" as="geometry" />
        </mxCell>
        <mxCell id="s2LPiHmwgQY_nW-soDtN-10" value="" style="rounded=0;whiteSpace=wrap;html=1;fillColor=#CCFFCC;" vertex="1" parent="1">
          <mxGeometry x="90" y="40" width="490" height="140" as="geometry" />
        </mxCell>
        <mxCell id="s2LPiHmwgQY_nW-soDtN-13" value="&lt;b&gt;Copilot SDK (N&lt;/b&gt;&lt;b style=&quot;background-color: transparent; color: light-dark(rgb(0, 0, 0), rgb(255, 255, 255));&quot;&gt;uget)&lt;/b&gt;" style="text;html=1;align=center;verticalAlign=middle;whiteSpace=wrap;rounded=0;" vertex="1" parent="1">
          <mxGeometry x="185" y="50" width="160" height="20" as="geometry" />
        </mxCell>
        <mxCell id="s2LPiHmwgQY_nW-soDtN-14" value="Copilot Client" style="rounded=1;whiteSpace=wrap;html=1;" vertex="1" parent="1">
          <mxGeometry x="100" y="80" width="150" height="60" as="geometry" />
        </mxCell>
        <mxCell id="s2LPiHmwgQY_nW-soDtN-15" value="" style="rounded=1;whiteSpace=wrap;html=1;" vertex="1" parent="1">
          <mxGeometry x="270" y="70" width="300" height="102" as="geometry" />
        </mxCell>
        <mxCell id="s2LPiHmwgQY_nW-soDtN-5" value="" style="edgeStyle=orthogonalEdgeStyle;rounded=0;orthogonalLoop=1;jettySize=auto;html=1;" edge="1" parent="1" source="s2LPiHmwgQY_nW-soDtN-1" target="s2LPiHmwgQY_nW-soDtN-14">
          <mxGeometry relative="1" as="geometry">
            <Array as="points">
              <mxPoint x="220" y="230" />
              <mxPoint x="198" y="230" />
            </Array>
          </mxGeometry>
        </mxCell>
        <mxCell id="s2LPiHmwgQY_nW-soDtN-18" value="CopilotRequest&lt;br&gt;Copilot Uri" style="edgeLabel;html=1;align=center;verticalAlign=middle;resizable=0;points=[];" vertex="1" connectable="0" parent="s2LPiHmwgQY_nW-soDtN-5">
          <mxGeometry x="0.0944" y="-3" relative="1" as="geometry">
            <mxPoint as="offset" />
          </mxGeometry>
        </mxCell>
        <mxCell id="s2LPiHmwgQY_nW-soDtN-16" value="&lt;font style=&quot;font-size: 9px;&quot;&gt;&lt;b&gt;Header&lt;/b&gt;:&lt;br&gt;X-System-Name&lt;/font&gt;" style="text;html=1;align=center;verticalAlign=middle;whiteSpace=wrap;rounded=0;" vertex="1" parent="1">
          <mxGeometry x="60" y="290" width="100" height="30" as="geometry" />
        </mxCell>
        <mxCell id="s2LPiHmwgQY_nW-soDtN-19" value="" style="endArrow=classic;html=1;rounded=0;entryX=0;entryY=0.5;entryDx=0;entryDy=0;" edge="1" parent="1" source="s2LPiHmwgQY_nW-soDtN-14" target="s2LPiHmwgQY_nW-soDtN-4">
          <mxGeometry width="50" height="50" relative="1" as="geometry">
            <mxPoint x="220" y="170" as="sourcePoint" />
            <mxPoint x="270" y="120" as="targetPoint" />
          </mxGeometry>
        </mxCell>
        <mxCell id="s2LPiHmwgQY_nW-soDtN-20" value="" style="endArrow=classic;html=1;rounded=0;entryX=-0.014;entryY=0.358;entryDx=0;entryDy=0;entryPerimeter=0;exitX=0.75;exitY=1;exitDx=0;exitDy=0;" edge="1" parent="1" source="s2LPiHmwgQY_nW-soDtN-14" target="s2LPiHmwgQY_nW-soDtN-6">
          <mxGeometry width="50" height="50" relative="1" as="geometry">
            <mxPoint x="210" y="170" as="sourcePoint" />
            <mxPoint x="400" y="260" as="targetPoint" />
          </mxGeometry>
        </mxCell>
        <mxCell id="s2LPiHmwgQY_nW-soDtN-26" value="" style="endArrow=block;dashed=1;endFill=0;endSize=12;html=1;rounded=0;entryX=1;entryY=0.5;entryDx=0;entryDy=0;entryPerimeter=0;" edge="1" parent="1" target="s2LPiHmwgQY_nW-soDtN-30">
          <mxGeometry width="160" relative="1" as="geometry">
            <mxPoint x="530" y="270" as="sourcePoint" />
            <mxPoint x="680" y="150" as="targetPoint" />
            <Array as="points">
              <mxPoint x="680" y="270" />
              <mxPoint x="680" y="130" />
              <mxPoint x="590" y="130" />
            </Array>
          </mxGeometry>
        </mxCell>
        <mxCell id="s2LPiHmwgQY_nW-soDtN-27" value="" style="endArrow=block;dashed=1;endFill=0;endSize=12;html=1;rounded=0;entryX=1;entryY=0.25;entryDx=0;entryDy=0;entryPerimeter=0;" edge="1" parent="1" target="s2LPiHmwgQY_nW-soDtN-30">
          <mxGeometry width="160" relative="1" as="geometry">
            <mxPoint x="530" y="365" as="sourcePoint" />
            <mxPoint x="368.9000000000001" y="161.53999999999996" as="targetPoint" />
            <Array as="points">
              <mxPoint x="720" y="365" />
              <mxPoint x="720" y="320" />
              <mxPoint x="720" y="115" />
            </Array>
          </mxGeometry>
        </mxCell>
        <mxCell id="s2LPiHmwgQY_nW-soDtN-29" value="&lt;b&gt;Copilot Server&lt;/b&gt;" style="text;html=1;align=center;verticalAlign=middle;whiteSpace=wrap;rounded=0;" vertex="1" parent="1">
          <mxGeometry x="265" y="70" width="275" height="20" as="geometry" />
        </mxCell>
        <mxCell id="s2LPiHmwgQY_nW-soDtN-30" value="&lt;b&gt;Copilot Contract&lt;/b&gt;&lt;br&gt;&lt;br&gt;ICopilotRequestProcessor&lt;br&gt;&lt;b&gt;Method&lt;/b&gt;: ProcessRequest" style="html=1;outlineConnect=0;whiteSpace=wrap;fillColor=#ffff99;shape=mxgraph.archimate3.application;appType=contract;archiType=square;" vertex="1" parent="1">
          <mxGeometry x="290" y="100" width="260" height="60" as="geometry" />
        </mxCell>
      </root>
    </mxGraphModel>
  </diagram>
</mxfile>
